<?xml version="1.0" encoding="UTF-8"?>
<svg width="421px" height="236px" viewBox="0 0 421 236" version="1.1" xmlns="http://www.w3.org/2000/svg" xmlns:xlink="http://www.w3.org/1999/xlink">
    <title>Logo</title>
    <desc>Created with Basil.</desc>
    <defs>
        <linearGradient x1="0%" y1="50%" x2="100%" y2="55.2239567%" id="linearGradient-1">
            <stop stop-color="#70FFE7" offset="0%"></stop>
            <stop stop-color="#6C99FF" offset="100%"></stop>
        </linearGradient>
    </defs>
    <g id="Page-1" stroke="none" stroke-width="1" fill="#000" fill-rule="evenodd">
        <g id="play/ic_launcher_APP" transform="translate(-46.000000, -138.000000)" fill-rule="nonzero">
            <g id="Group" transform="translate(46.000000, 138.000000)">
                <path d="M341.048349,30.5892992 L330.898585,30.5892992 L330.898585,205.410701 L341.048349,205.410701 C344.134842,205.410701 346.983871,204.580767 349.595519,202.920874 C352.207167,201.260981 354.225229,198.949023 355.649764,195.984928 L386.989387,132.494348 C388.057788,130.3602 388.8294,128.107523 389.304245,125.736247 C389.77909,123.364972 390.016509,120.756608 390.016509,117.911078 C390.016509,115.184111 389.77909,112.635028 389.304245,110.263753 C388.8294,107.892477 388.057788,105.6398 386.989387,103.505652 L355.649764,40.3707611 C354.106517,37.4066669 352.029101,35.0354271 349.417453,33.2569706 C346.805805,31.4785141 344.016131,30.5892992 341.048349,30.5892992 Z M341.048349,0 C350.663963,0 358.914274,2.31195879 365.799528,6.93594574 C372.684783,11.5599327 378.679613,18.851495 383.784198,28.8108515 L415.479953,91.7678975 C417.260622,95.4433743 418.625781,99.4448415 419.575472,103.772419 C420.525162,108.099997 421,112.812836 421,117.911078 C421,123.00932 420.525162,127.751799 419.575472,132.138659 C418.625781,136.525518 417.260622,140.556626 415.479953,144.232102 L383.784198,207.189148 C378.917035,217.029941 373.011238,224.291863 366.066627,228.975132 C359.122017,233.658401 350.782674,236 341.048349,236 L287.09434,236 C281.989754,236 277.864599,234.577256 274.71875,231.731726 C271.572901,228.886195 270,225.210774 270,220.70535 C270,216.199927 271.602578,212.524506 274.807783,209.678975 C278.012988,206.833445 282.108466,205.410701 287.09434,205.410701 L300.271226,205.410701 L300.271226,30.5892992 L287.09434,30.5892992 C281.989754,30.5892992 277.864599,29.1665553 274.71875,26.3210249 C271.572901,23.4754944 270,19.8000728 270,15.2946496 C270,10.7892264 271.602578,7.11380473 274.807783,4.2682743 C278.012988,1.42274387 282.108466,0 287.09434,0 L341.048349,0 Z" id="V-D" fill="#FFFFFF"></path>
                <path d="M30.6273585,17.0730972 L30.6273585,63.3127355 L75.5,181.045968 L120.372642,63.3127355 L120.372642,17.0730972 C120.372642,12.093419 121.797156,8.00303032 124.646226,4.80180859 C127.495297,1.60058686 131.175292,0 135.686321,0 C140.19735,0 143.877344,1.57094636 146.726415,4.71288621 C149.575486,7.85482606 151,11.9748552 151,17.0730972 L151,69.1816127 L90.8136792,222.839488 C88.9142987,227.93773 86.807205,231.405668 84.4923349,233.243406 C82.1774648,235.081145 79.1800498,236 75.5,236 C71.7012389,236 68.555437,234.992223 66.0625,232.976639 C63.569563,230.961055 61.4921467,227.582038 59.8301887,222.839488 L0,69.1816127 L0,17.0730972 C0,11.8562914 1.39483668,7.70662179 4.18455189,4.62396383 C6.97426709,1.54130586 10.6839391,0 15.3136792,0 C19.7059968,0 23.3563141,1.60058686 26.2647406,4.80180859 C29.1731671,8.00303032 30.6273585,12.093419 30.6273585,17.0730972 Z" id="Path" fill="#FFFFFF"></path>
                <path d="M172.207547,109 L248.792453,109 C252.139168,109 254.84374,110.04064 256.90625,112.121951 C258.96876,114.203262 260,116.891582 260,120.186992 L260,129.552846 C260,132.848255 258.929846,135.579935 256.789505,137.747967 C254.649164,139.916 251.983507,141 248.792453,141 L172.207547,141 C168.860832,141 166.15626,139.93768 164.09375,137.813008 C162.03124,135.688336 161,132.934976 161,129.552846 L161,120.186992 C161,116.978304 162.050697,114.311664 164.152123,112.186992 C166.253548,110.06232 168.938663,109 172.207547,109 Z" id="Path" fill="url(#linearGradient-1)"></path>
            </g>
        </g>
    </g>
</svg>
